<svg id="Layer_1" data-name="Layer 1" xmlns="http://www.w3.org/2000/svg" viewBox="0 0 1000.01 393.05"><defs><style>.cls-1{fill:#04c695;}.cls-2{fill:#fff;}</style></defs><title>BigchainDB logo - original for dark backgrounds 1000 x 393</title><path class="cls-1" d="M808.77,270.28a73.76,73.76,0,1,1,73.75-73.76A73.84,73.84,0,0,1,808.77,270.28Zm0-140A66.25,66.25,0,1,0,875,196.53,66.33,66.33,0,0,0,808.77,130.27Z"/><path class="cls-2" d="M776,163.66h14q8.08,0,12.35,4.5t4.27,12.58v30.91q0,9.28-4.5,13.69t-13,4.41H776Zm9.47,57.19h4.36q4,0,5.66-2t1.67-6.27V180.74a10,10,0,0,0-1.58-6q-1.58-2.13-5.76-2.14h-4.36Z"/><path class="cls-2" d="M815.51,163.66h13.83a19.4,19.4,0,0,1,7.75,1.39,14.64,14.64,0,0,1,5.25,3.71,13.92,13.92,0,0,1,2.92,5.34,22.24,22.24,0,0,1,.88,6.27v2.41a21.08,21.08,0,0,1-.42,4.55,10.94,10.94,0,0,1-1.25,3.25,10.43,10.43,0,0,1-2,2.46,17.82,17.82,0,0,1-2.78,2,10.24,10.24,0,0,1,4.92,4.69,18.5,18.5,0,0,1,1.58,8.31v3.71q0,8.73-4.22,13.37t-13.51,4.64h-12.9ZM825,190.77h4.27q4.73,0,6.36-2.37t1.62-6.92q0-4.46-1.81-6.68t-6.54-2.23H825Zm0,29.52h4.08a10,10,0,0,0,4.5-.84,5.77,5.77,0,0,0,2.46-2.32,8.76,8.76,0,0,0,1-3.53q.18-2,.18-4.46a29.74,29.74,0,0,0-.28-4.36,7.17,7.17,0,0,0-1.16-3.11,5.47,5.47,0,0,0-2.46-1.9,11.19,11.19,0,0,0-4.18-.65H825Z"/><path class="cls-2" d="M174,261.67c-6.53,6-14.64,8.48-27.93,8.48H120a2.39,2.39,0,0,1-2.49-2.28V125.18A2.39,2.39,0,0,1,120,122.9h26.34c13.06,0,20.95,2.28,27.25,8.48,6.76,6.62,8.78,14.27,8.78,29.57,0,10.34-1.35,19.44-9.46,26.89a24.11,24.11,0,0,1-10.14,5.79,22.43,22.43,0,0,1,11,5.79c8.78,8.27,9.91,19.23,9.91,29.78C183.71,247.4,180.78,255.26,174,261.67ZM146.55,133.86H133.26a2.39,2.39,0,0,0-2.49,2.28v50a2.39,2.39,0,0,0,2.49,2.28h13.28c14.41,0,22.52-7.65,22.52-27.3C169.07,139.65,161,133.86,146.55,133.86Zm0,65.35H133.26a2.39,2.39,0,0,0-2.49,2.28v55.41a2.39,2.39,0,0,0,2.49,2.28h13.28c15.32,0,23.87-6.41,23.87-30C170.42,207.69,161.86,199.21,146.55,199.21Z"/><path class="cls-2" d="M205.69,267.87V125.18a2.39,2.39,0,0,1,2.49-2.28h8.32a2.39,2.39,0,0,1,2.49,2.28V267.87a2.39,2.39,0,0,1-2.49,2.28h-8.32A2.39,2.39,0,0,1,205.69,267.87Z"/><path class="cls-2" d="M276.32,271.81c-10.36,0-18.47-3.31-23.87-8.69-10.14-9.93-11.26-21.51-11.26-66.59s1.13-56.67,11.26-66.59c5.41-5.38,13.51-8.69,23.87-8.69s17.79,3.1,23.2,8.07c6.28,6,9.64,14.77,10.08,24.95a2.37,2.37,0,0,1-2.48,2.35H298.8a2.41,2.41,0,0,1-2.48-2.21c-.48-11.1-4.8-22.19-20-22.19-6.53,0-11,2.07-14.19,5.38-6.53,7.24-7.66,15.72-7.66,58.94s1.13,51.7,7.66,58.94c3.15,3.31,7.66,5.38,14.19,5.38,11.49,0,20-8.27,20-22.13V204.8a2.39,2.39,0,0,0-2.49-2.28H276.32V192.18h30.85a2.39,2.39,0,0,1,2.49,2.28v44.25C309.65,260.64,294.11,271.81,276.32,271.81Z"/><path class="cls-2" d="M385.69,264.77c-5.41,4.34-12.61,7-22.07,7-10.36,0-18.47-3.31-23.87-8.69-10.14-9.93-11.26-21.51-11.26-66.59s1.13-56.67,11.26-66.59c5.41-5.38,13.51-8.69,23.87-8.69,10.14,0,17.57,2.9,23,7.86,6.48,5.95,9.66,14.92,10.27,25.11a2.38,2.38,0,0,1-2.49,2.4H386.1a2.41,2.41,0,0,1-2.48-2.21c-.3-6.65-2-12.94-6.26-17.23-3.15-3.1-7.43-5-13.74-5-6.53,0-11,2.07-14.19,5.38-6.53,7.24-7.66,15.72-7.66,58.94s1.13,51.7,7.66,58.94c3.15,3.31,7.66,5.38,14.19,5.38,6.31,0,10.59-1.86,13.74-5,4.26-4.28,6-10.58,6.26-17.23a2.41,2.41,0,0,1,2.48-2.21h8.28a2.37,2.37,0,0,1,2.48,2.38C396.24,249.59,392.82,258.8,385.69,264.77Z"/><path class="cls-2" d="M469.16,267.87v-67H429.51v67a2.39,2.39,0,0,1-2.49,2.28h-8.32a2.39,2.39,0,0,1-2.49-2.28V125.18a2.39,2.39,0,0,1,2.49-2.28H427a2.39,2.39,0,0,1,2.49,2.28V189.7h39.64V125.18a2.39,2.39,0,0,1,2.49-2.28H480a2.39,2.39,0,0,1,2.49,2.28V267.87a2.39,2.39,0,0,1-2.49,2.28h-8.32A2.39,2.39,0,0,1,469.16,267.87Z"/><path class="cls-2" d="M562.14,268.32l-8-36.66a2.44,2.44,0,0,0-2.44-1.83h-33.3a2.44,2.44,0,0,0-2.44,1.85l-7.78,36.64a2.44,2.44,0,0,1-2.44,1.85h-9.27a2.34,2.34,0,0,1-2.43-2.78l34.7-142.69a2.45,2.45,0,0,1,2.43-1.78h8.4a2.45,2.45,0,0,1,2.43,1.79l34,142.69a2.34,2.34,0,0,1-2.43,2.77h-9.06A2.44,2.44,0,0,1,562.14,268.32Zm-27.08-123.5-15.4,71.31a2.34,2.34,0,0,0,2.44,2.73h26.15a2.34,2.34,0,0,0,2.44-2.73Z"/><path class="cls-2" d="M587.89,267.87V125.18a2.39,2.39,0,0,1,2.49-2.28h8.32a2.39,2.39,0,0,1,2.49,2.28V267.87a2.39,2.39,0,0,1-2.49,2.28h-8.32A2.39,2.39,0,0,1,587.89,267.87Z"/><path class="cls-2" d="M684.29,268.64,640.06,155.37v112.5a2.39,2.39,0,0,1-2.49,2.28h-8.32a2.39,2.39,0,0,1-2.49-2.28V125.18a2.39,2.39,0,0,1,2.49-2.28h9.05a2.48,2.48,0,0,1,2.34,1.51l44.23,113.27-.22-112.5a2.39,2.39,0,0,1,2.49-2.29h8.31a2.39,2.39,0,0,1,2.49,2.28V267.87a2.39,2.39,0,0,1-2.49,2.28h-8.83A2.48,2.48,0,0,1,684.29,268.64Z"/></svg>